# xmcd CD database file
#
# Track frame offsets:
#	150
#	17137
#	27390
#	41789
#	57210
#	71783
#	91691
#	116638
#	133813
#	152996
#	165970
#	186350
#
# Disc length: 2653 seconds
#
# Revision: 2
# Processed by: cddbd v1.5.1PL0 Copyright (c) Steve Scherf et al.
# Submitted via: CDex 1.51
#
DISCID=a30a5b0c
DTITLE=Aerosmith - Honkin on Bobo
DYEAR=2004
DGENRE=Hard Rock
TTITLE0=Road Runner
TTITLE1=Shame, Shame, Shame
TTITLE2=Eyesight To The Blind 
TTITLE3=Baby, Please Don't Go
TTITLE4=Never Loved A Girl 
TTITLE5=Back Back Train
TTITLE6=You Gotta Move
TTITLE7=The Grind
TTITLE8=I'm Ready
TTITLE9=Temperature
TTITLE10=Stop Messin' Around
TTITLE11=Jesus Is On The Mainline
EXTD=YEAR: 2004
EXTT0=
EXTT1=
EXTT2=
EXTT3=
EXTT4=
EXTT5=
EXTT6=
EXTT7=
EXTT8=
EXTT9=
EXTT10=
EXTT11=
PLAYORDER=
